# xmcd CD database file
#
# Track frame offsets:
#	150
#	16492
#	27055
#	42010
#	50607
#	65315
#	75367
#	84270
#	94155
#	107400
#	118202
#	127512
#	139060
#	150882
#	161275
#	172682
#	184817
#	204782
#	214595
#
# Disc length: 3014 seconds
#
# Revision: 4
# Processed by: cddbd v1.5.2PL0 Copyright (c) Steve Scherf et al.
# Submitted via: CDex 1.70beta2
#
DISCID=d20bc413
DTITLE=Anita Lindblom - Minns du den sången - CD2
DYEAR=1999
DGENRE=Svensktopp
TTITLE0=Varför kom det ingen Higgens in i mitt liv - (1960)
TTITLE1=Ta ett snälltåg till himlen - (1962)
TTITLE2=Balladen om herr Fredrik Åkare och den söta fröken Cecilia Lind - (1968)
TTITLE3=Det är nå't mysko - (1961)
TTITLE4=Ljuva ungkarlstid - (1956)
TTITLE5=Mr. Big Wheel - (1962)
TTITLE6=Jag ska nog ta dig ner på jorden - (1962)
TTITLE7=Lite sentimental - (1964)
TTITLE8=Det som Karl-Frederik vill  - (1969)
TTITLE9=Liksom ett rö för vinden - (1973)
TTITLE10=Visa vid midsommartid - (1965)
TTITLE11=Minns du den sången - (1967)
TTITLE12=Vårkärlek - (1962)
TTITLE13=Satsa på kärleken - (1962)
TTITLE14=Jag lever för dig - (1962)
TTITLE15=Lyssna (Vill du veta vad jag tänker?)  - (1966)
TTITLE16=Räkna de lyckliga stunderna blott  - (1974)
TTITLE17=Oh, Oh, Baby  - (1960)
TTITLE18=Sånt är livet  - (1961)
EXTD=YEAR: 1999
EXTT0=
EXTT1=
EXTT2=
EXTT3=
EXTT4=
EXTT5=
EXTT6=
EXTT7=
EXTT8=
EXTT9=
EXTT10=
EXTT11=
EXTT12=
EXTT13=
EXTT14=
EXTT15=
EXTT16=
EXTT17=
EXTT18=
PLAYORDER=
